HIERARCHY
ROOT Bip001_Pelvis
{
  OFFSET 34.4345 95.6767 -26.8758
  CHANNELS 6 Xposition Yposition Zposition Zrotation Xrotation Yrotation
  JOINT Bip001_Spine
  {
    OFFSET 1.4188e-005 10.2191 -0.0116013
    CHANNELS 3 Zrotation Xrotation Yrotation
    JOINT Bip001_L_Thigh
    {
      OFFSET 11.0458 -10.2192 0.0116197
      CHANNELS 3 Zrotation Xrotation Yrotation
      JOINT Bip001_L_Calf
      {
        OFFSET -0.707118 -44.0221 0.360014
        CHANNELS 3 Zrotation Xrotation Yrotation
        JOINT Bip001_L_Foot
        {
          OFFSET -0.651902 -40.5938 -3.56146
          CHANNELS 3 Zrotation Xrotation Yrotation
          JOINT Bip001_L_Toe0
          {
            OFFSET 0.0530839 -10.2181 13.1504
            CHANNELS 3 Zrotation Xrotation Yrotation
            End Site
            {
              OFFSET -1.02532e-005 0 7.55606
            }
          }
        }
      }
    }
    JOINT Bip001_R_Thigh
    {
      OFFSET -11.0458 -10.2191 0.0115893
      CHANNELS 3 Zrotation Xrotation Yrotation
      JOINT Bip001_R_Calf
      {
        OFFSET 0.706994 -44.0221 0.35984
        CHANNELS 3 Zrotation Xrotation Yrotation
        JOINT Bip001_R_Foot
        {
          OFFSET 0.651786 -40.5938 -3.5613
          CHANNELS 3 Zrotation Xrotation Yrotation
          JOINT Bip001_R_Toe0
          {
            OFFSET -0.0531479 -10.2181 13.1504
            CHANNELS 3 Zrotation Xrotation Yrotation
            End Site
            {
              OFFSET -1.02894e-005 0 7.55606
            }
          }
        }
      }
    }
    JOINT Bip001_Spine1
    {
      OFFSET 1.87041e-005 14.5736 1.08638
      CHANNELS 3 Zrotation Xrotation Yrotation
      JOINT Bip001_Spine2
      {
        OFFSET 2.24614e-005 14.5058 -1.69078
        CHANNELS 3 Zrotation Xrotation Yrotation
        JOINT Bip001_Neck
        {
          OFFSET 2.20278e-005 15.3945 -0.489414
          CHANNELS 3 Zrotation Xrotation Yrotation
          JOINT Bip001_L_Clavicle
          {
            OFFSET 6.06036 -0.000579998 0.00836775
            CHANNELS 3 Zrotation Xrotation Yrotation
            JOINT Bip001_L_UpperArm
            {
              OFFSET 11.5509 -0.0600302 0.00193952
              CHANNELS 3 Zrotation Xrotation Yrotation
              JOINT Bip001_L_Forearm
              {
                OFFSET 25.9523 0.0806089 -2.15551
                CHANNELS 3 Zrotation Xrotation Yrotation
                JOINT Bip001_L_Hand
                {
                  OFFSET 32.2475 0.153767 1.63968
                  CHANNELS 3 Zrotation Xrotation Yrotation
                  JOINT Bip001_L_Finger0
                  {
                    OFFSET 6.04639 -2.20976 5.90322
                    CHANNELS 3 Zrotation Xrotation Yrotation
                    End Site
                    {
                      OFFSET 4.22375 -1.43895 0.606485
                    }
                  }
                  JOINT Bip001_L_Finger1
                  {
                    OFFSET 11.0826 -0.704819 -0.198153
                    CHANNELS 3 Zrotation Xrotation Yrotation
                    End Site
                    {
                      OFFSET 6.20027 -0.397518 -0.0787166
                    }
                  }
                }
              }
            }
          }
          JOINT Bip001_R_Clavicle
          {
            OFFSET -6.06037 -0.000563197 0.00835105
            CHANNELS 3 Zrotation Xrotation Yrotation
            JOINT Bip001_R_UpperArm
            {
              OFFSET -11.5509 -0.0599978 0.00190698
              CHANNELS 3 Zrotation Xrotation Yrotation
              JOINT Bip001_R_Forearm
              {
                OFFSET -25.9523 0.0806822 -2.15589
                CHANNELS 3 Zrotation Xrotation Yrotation
                JOINT Bip001_R_Hand
                {
                  OFFSET -32.2475 0.153859 1.63989
                  CHANNELS 3 Zrotation Xrotation Yrotation
                  JOINT Bip001_R_Finger0
                  {
                    OFFSET -6.04641 -2.20976 5.90317
                    CHANNELS 3 Zrotation Xrotation Yrotation
                    End Site
                    {
                      OFFSET -4.22376 -1.43895 0.60647
                    }
                  }
                  JOINT Bip001_R_Finger1
                  {
                    OFFSET -11.0826 -0.704794 -0.198182
                    CHANNELS 3 Zrotation Xrotation Yrotation
                    End Site
                    {
                      OFFSET -6.20028 -0.397504 -0.0787333
                    }
                  }
                }
              }
            }
          }
          JOINT Bip001_Head
          {
            OFFSET 1.09673e-005 11.2744 2.05948
            CHANNELS 3 Zrotation Xrotation Yrotation
            End Site
            {
              OFFSET 2.89576e-005 20.8808 -2.77728e-005
            }
          }
        }
      }
    }
  }
}
MOTION
Frames:	12
Frame Time:	0.04
37.8357 94.066 -29.9584 -3.22002 -9.43711 -7.5743 -0.199949 2.91019 -0.181149 7.81789 1.45311 12.4946 -3.40419 22.4568 4.99761 5.71997 -12.7263 0.42157 1.51061 -5.84395 -0.700037 -5.198 -0.516871 0.925274 -1.02786 18.3277 2.64974 -7.53191 -9.07255 1.33281 4.00457 -12.8745 4.34665 -0.391033 5.82101 -0.352781 -0.388674 5.82102 -0.352977 4.96965 -5.91712 0.655952 -27.39 8.86384 -5.88798 -39.5021 42.0935 -1.26157 15.4704 -0.168961 -27.4931 6.02668 1.20851 -4.25049 4.41391e-032 1.59028e-015 -1.59028e-015 -4.41391e-032 -1.59028e-015 -1.59028e-015 10.545 10.5206 16.3494 58.9076 -33.0508 43.8261 -43.7286 5.54216 83.3863 -40.8712 -12.3811 13.9301 0 0 -3.97569e-016 6.62086e-032 3.18056e-015 -1.19271e-015 -4.80377 -4.34282 2.76241 
36.6394 94.7896 -30.4145 -3.77145 -7.99184 -5.50333 -0.194683 2.68321 0.307288 9.19555 0.877404 11.905 -2.5726 19.5222 2.6989 4.50273 -10.9732 0.282305 1.529 -5.74264 -0.768432 -3.44675 1.24435 -0.854412 -0.927932 12.8304 2.28987 -6.90602 -6.79919 0.840246 3.65685 -11.9615 4.06504 -0.403274 5.36541 0.624759 -0.406097 5.36538 0.624837 5.52838 -8.32939 -2.15753 -28.81 10.1828 -4.02351 -38.3445 41.7475 -1.565 15.1615 0.163926 -27.4157 5.93041 1.4108 -4.27345 6.36111e-015 -1.59028e-015 -1.59028e-015 6.36111e-015 1.59028e-015 -3.18055e-015 7.32674 13.4406 21.4824 47.5594 -24.2283 46.5291 -38.847 -0.127803 70.4072 -40.1305 -10.761 13.947 7.95139e-016 0 3.97569e-016 -6.62086e-032 9.54167e-015 3.97569e-016 -4.79041 -2.3271 0.140203 
35.4145 95.3618 -30.9043 -4.26373 -6.32291 -3.60114 -0.212178 2.42053 0.715005 10.4759 0.00929421 11.8181 -1.75355 16.669 0.402779 2.47532 -9.62368 0.166848 1.24659 -5.19304 -0.40894 -1.73536 2.68481 -1.59935 -0.710946 7.21647 1.32229 -6.26048 -4.52345 0.210757 3.22699 -10.8759 3.82991 -0.460917 4.83821 1.44072 -0.455832 4.83822 1.44093 5.1074 -10.4594 -4.34236 -29.3196 11.4211 -2.37292 -37.0167 42.0174 -1.8439 14.6784 0.140686 -27.1202 5.98979 1.4354 -4.50409 -2.64834e-031 9.54166e-015 1.59028e-015 3.18055e-015 9.54167e-015 -1.59028e-015 4.80727 15.6664 26.3876 32.3306 -15.6286 48.2509 -36.1205 -4.75011 54.2564 -39.6054 -10.3764 13.9857 1.59028e-015 3.18055e-015 -0 -0 0 7.95139e-016 -3.94032 -0.550228 -2.23857 
34.1684 95.7019 -31.2995 -4.39551 -4.773 -1.72923 -0.339937 2.15307 1.07088 11.5523 -0.946949 12.5373 -1.27681 14.2514 -2.44915 1.5961 -7.99919 0.111572 1.191 -5.05281 -0.426413 -0.372587 3.76932 -1.80141 -0.509887 2.48571 0.226148 -5.83765 -2.7402 -0.652099 2.94781 -10.0186 3.47465 -0.719977 4.29939 2.15358 -0.720602 4.29938 2.15507 5.58809 -11.7111 -6.47554 -29.8892 11.5519 -0.417609 -36.3507 42.6567 -2.52984 14.4083 0.235927 -26.5165 5.45653 1.14499 -4.41949 -9.54166e-015 -6.36111e-015 -0 -1.27222e-014 -3.18056e-015 -0 1.26578 16.2612 28.9456 41.2754 -18.251 59.1862 -40.3041 -10.5412 40.2209 -41.1299 -15.5487 19.3283 -4.22417e-016 -1.27222e-014 1.08089e-015 -1.51573e-015 -1.59028e-014 -1.50331e-015 -3.88384 0.184994 -4.1908 
32.9773 95.8724 -31.6838 -4.30118 -3.62951 1.1033 -0.512278 1.88317 0.680225 12.4596 -2.1203 12.1854 -1.24677 12.6772 -4.69161 1.26935 -6.43139 0.0774785 1.0786 -5.30652 -0.231116 0.604122 3.44109 -2.15905 -0.20341 1.74463 -0.496401 -5.7147 -3.14033 -1.96069 2.66296 -9.16937 3.21158 -1.058 3.76044 1.37703 -1.05321 3.76038 1.37818 8.07787 -10.2565 -7.38007 -30.9509 9.31799 0.102192 -38.6292 41.2845 -0.343688 14.4138 1.02842 -26.597 6.72022 0.898719 -4.82721 -0 -3.18055e-015 -0 0 0 -0 2.443 15.4822 27.9344 55.0867 -30.0376 67.1558 -48.7054 5.9508 56.0349 -26.0909 -13.3779 2.15087 -1.59028e-015 3.18055e-015 -0 -1.59028e-015 -3.18056e-015 -0 -5.27886 -0.953781 -4.38246 
32.3186 95.9215 -32.0697 -3.38833 -3.36358 2.48824 -0.662161 1.64225 0.052689 11.8436 -2.01078 12.7416 -0.728242 11.2061 -6.21009 0.648695 -5.38762 0.0555544 0.972329 -5.38796 0.00396709 0.072649 3.65105 -2.22081 0.332412 1.40985 -0.521488 -5.61318 -3.39716 -2.04347 2.534 -8.41707 2.51946 -1.26918 3.28376 0.16689 -1.29962 3.28374 0.144507 11.0594 -7.45224 -7.59433 -30.7708 6.40133 -1.19159 -45.2603 39.7132 4.27565 14.2833 2.4208 -26.2292 7.85853 0.731877 -4.98935 9.54166e-015 -3.18055e-015 -3.18055e-015 1.27222e-014 -3.18056e-015 -3.18055e-015 2.23564 12.661 25.2483 33.0241 -27.6118 60.2173 -43.6212 3.45053 46.9536 -23.7255 -13.9975 2.98242 0 3.18055e-015 -0 -3.18055e-015 0 1.59028e-015 -7.5214 -1.71852 -3.12649 
31.6551 95.8948 -32.4979 -3.14992 -3.84101 1.19489 -0.343505 1.61978 -0.161254 11.5726 -1.42697 13.5345 -0.508121 11.248 -5.81917 0.231232 -5.2184 0.0565289 0.956674 -5.58766 0.218318 -0.267216 3.19391 -1.32967 0.419543 2.54212 -0.0844008 -5.78662 -3.92168 -1.82541 2.43609 -8.12154 2.4106 -0.70175 3.2403 -0.332844 -0.691184 3.24039 -0.322758 10.6039 -7.41454 -6.78438 -31.4209 6.50399 -0.639991 -48.5126 41.6006 7.83328 15.2711 3.68986 -25.3755 5.23111 0.726265 -5.80444 3.18055e-015 0 -0 0 0 -0 -3.12909 10.1464 22.6107 30.1898 -23.4225 58.1337 -41.6904 0.789323 41.5386 -22.4762 -16.5925 8.32616 3.18055e-015 3.18055e-015 7.95139e-016 3.18055e-015 0 -0 -7.91086 -1.025 -2.36097 
30.8491 95.7834 -33.1516 -3.48436 -3.26378 -1.42553 -0.109614 1.75501 -0.201079 12.1995 -2.21284 14.4947 -0.595289 12.2833 -4.24649 -0.0864471 -5.65547 0.0581646 0.978018 -5.72326 0.453071 0.279226 0.52566 1.04463 0.239038 5.05605 0.359147 -6.15857 -4.64437 -2.01116 2.41109 -8.01472 2.34353 -0.213163 3.51041 -0.3991 -0.213165 3.51042 -0.3991 8.7744 -9.23646 -5.41086 -30.7084 8.63267 0.548832 -48.1581 43.4474 7.24722 16.1177 5.3596 -23.3881 2.13529 0.857162 -6.72075 -6.36111e-015 -3.18055e-015 1.59028e-015 -6.36111e-015 -3.18056e-015 7.95139e-016 -4.60871 11.5865 23.1718 32.085 -25.6202 56.8212 -39.3157 -2.45285 42.7717 -23.2062 -16.9553 8.34176 1.59028e-015 3.18055e-015 -7.95139e-016 3.18055e-015 6.36111e-015 -7.95139e-016 -6.38283 -0.0049013 -1.87869 
30.2997 95.6701 -33.6683 -3.74084 -2.88677 -3.65406 -0.136837 1.94844 0.0162638 12.6262 -2.79835 14.452 -0.369715 12.9853 -2.47316 0.0151228 -5.78533 0.0607682 1.12593 -6.26729 0.5602 0.861901 -1.42028 1.97993 0.194065 6.80276 0.824075 -6.33635 -5.2398 -1.52325 2.4711 -8.20373 2.41223 -0.274625 3.89687 0.0371982 -0.274441 3.89687 0.0372085 9.35103 -9.9534 -5.36645 -31.4064 9.51592 -0.336008 -47.5263 45.453 7.01189 15.8578 4.4025 -21.551 2.84441 1.36953 -5.80792 6.36111e-015 3.18055e-015 -7.95139e-016 3.18055e-015 1.59028e-015 -7.95139e-016 -2.10396 13.1261 22.6346 28.1027 -27.0379 53.1611 -39.8859 -3.25918 45.2413 -22.4729 -15.5373 10.2038 -3.18055e-015 1.27222e-014 -1.59028e-015 -3.18055e-015 9.54167e-015 -1.59028e-015 -5.83433 -0.582989 -1.90385 
30.0654 95.5553 -33.9029 -3.31725 -3.01043 -5.50267 -0.154628 1.95151 0.102335 12.0407 -2.42417 14.5809 -0.0261671 13.1748 -1.24921 0.227376 -5.86984 0.0584396 1.19132 -6.68725 0.736642 0.499382 -2.58959 1.79235 0.155067 8.83174 1.56436 -6.44361 -6.4692 -0.624653 2.58624 -8.57366 2.56171 -0.308957 3.90273 0.210279 -0.313052 3.90273 0.210082 10.0188 -8.47525 -5.66587 -31.8078 8.14109 -1.31448 -48.5185 46.1999 7.65202 15.6113 3.79869 -20.4444 4.21963 1.59738 -4.99809 -3.18055e-015 1.59028e-015 -1.59028e-015 -6.36111e-015 0 -7.95139e-016 0.811496 12.5053 22.1715 27.8493 -27.4212 48.5377 -42.5334 -0.402299 52.3016 -20.7864 -13.5532 11.8855 1.32417e-031 -4.77083e-015 1.59028e-015 4.41391e-032 -3.18056e-015 7.95139e-016 -6.33614 -1.95011 -1.8978 
29.9848 95.4074 -33.9632 -2.46193 -3.48566 -7.00696 -0.171124 2.08018 0.0228215 10.9001 -1.6729 15.3543 0.224853 12.9497 -0.8859 1.27245 -5.52534 0.0459689 1.43474 -7.4972 0.791005 -0.340809 -3.73805 1.9194 -0.0111518 11.4404 2.19806 -6.6166 -8.00074 0.0839647 2.76293 -9.06266 2.66887 -0.338759 4.16038 0.0521512 -0.343304 4.16035 0.051951 9.5688 -8.00436 -5.30543 -31.2406 7.83359 -1.3773 -48.5474 44.7498 6.14978 14.961 3.7046 -19.8975 4.56978 1.8834 -4.23347 -6.36111e-015 -1.59028e-015 2.38542e-015 -6.36111e-015 0 2.38542e-015 3.35391 12.6388 21.5162 30.9104 -28.7075 44.2979 -43.8803 1.76968 61.4244 -20.1066 -12.3396 10.8044 -6.36111e-015 0 1.59028e-015 -3.18055e-015 0 -0 -6.08477 -2.47876 -1.70897 
29.9481 95.245 -34.1127 -1.78751 -3.60261 -8.18831 -0.0950138 2.20715 -0.411862 9.98601 -1.64661 16.1766 0.420527 13.1583 -0.55279 1.91767 -4.98434 0.0257561 1.44171 -7.87446 0.988316 -0.893251 -5.20443 3.09035 -0.195895 13.7542 2.54682 -6.83517 -8.98168 0.140206 2.78887 -9.129 2.6955 -0.177586 4.41492 -0.821111 -0.17433 4.41491 -0.820988 7.70149 -7.47866 -3.71648 -29.9023 7.89635 -1.10227 -47.43 41.882 3.91275 14.291 3.90768 -20.242 3.93923 2.01329 -3.43269 3.18055e-015 1.59028e-015 -1.59028e-015 3.18055e-015 3.18056e-015 -7.95139e-016 7.717 13.1726 21.8263 33.3357 -31.3631 37.2996 -46.6138 4.66822 71.503 -20.6296 -12.8622 11.0854 -3.18055e-015 0 -0 2.20695e-032 1.59028e-015 -7.95139e-016 -4.67133 -3.57391 -0.903379 
